<svg width="512" height="512" xmlns="http://www.w3.org/2000/svg">
    <!-- Font Awesome Free 5.15.1 by @fontawesome - https://fontawesome.com License - https://fontawesome.com/license/free (Icons: CC BY 4.0, Fonts: SIL OFL 1.1, Code: MIT License) -->
    <g>
        <rect fill="#D7FE3C" id="canvas_background" height="514" width="514" y="-1" x="-1" />
    </g>
    <g>
        <path stroke="null" fill="#0B0B13" id="svg_1" d="m387.46925,195.24866l0,0l-63.56984,-63.70381a22.44264,22.44264 0 0 0 -31.72851,-0.04936l0,0l-0.04936,0.04936l-53.18404,53.2475l0,191.16077l148.53175,-148.84199a22.5625,22.5625 0 0 0 0,-31.86248zm31.96824,107.37634l-75.3799,0l-131.43361,131.50412c-1.45246,1.45951 -3.17285,2.52418 -4.70992,3.87088l211.52343,0a22.5625,22.5625 0 0 0 22.5625,-22.5625l0,-90.25a22.5625,22.5625 0 0 0 -22.5625,-22.5625zm-203.06249,-203.06249a22.5625,22.5625 0 0 0 -22.5625,-22.5625l-90.25,0a22.5625,22.5625 0 0 0 -22.5625,22.5625l0,270.74999a67.6875,67.6875 0 0 0 135.375,0l0,-270.74999zm-67.6875,287.67186a16.92187,16.92187 0 1 1 16.92187,-16.92187a16.92187,16.92187 0 0 1 -16.92187,16.92187zm22.5625,-129.73437l-45.125,0l0,-45.125l45.125,0l0,45.125zm0,-90.25l-45.125,0l0,-45.125l45.125,0l0,45.125z" />
    </g>
</svg>
